<?xml version="1.0" encoding="UTF-8" standalone="no"?>
<!DOCTYPE svg PUBLIC "-//W3C//DTD SVG 1.1//EN"
 "http://www.w3.org/Graphics/SVG/1.1/DTD/svg11.dtd">
<!-- Generated by graphviz version 2.44.1 (20200629.0846)
 -->
<!-- Title: G Pages: 1 -->
<svg width="626pt" height="400pt"
 viewBox="0.00 0.00 625.62 399.95" xmlns="http://www.w3.org/2000/svg" xmlns:xlink="http://www.w3.org/1999/xlink">
<g id="graph0" class="graph" transform="scale(1 1) rotate(0) translate(4 395.95)">
<title>G</title><style>.edge>path:hover{stroke-width:8}</style>
<polygon fill="white" stroke="transparent" points="-4,4 -4,-395.95 621.62,-395.95 621.62,4 -4,4"/>
<!-- excelform2json_excel2json_excel2json -->
<g id="node1" class="node">
<title>excelform2json_excel2json_excel2json</title><style>.edge>path:hover{stroke-width:8}</style>
<ellipse fill="#883a3a" stroke="black" cx="238.81" cy="-28.99" rx="60.62" ry="28.98"/>
<text text-anchor="middle" x="238.81" y="-37.49" font-family="Helvetica,sans-Serif" font-size="10.00" fill="#ffffff">excelform2json.</text>
<text text-anchor="middle" x="238.81" y="-26.49" font-family="Helvetica,sans-Serif" font-size="10.00" fill="#ffffff">excel2json.</text>
<text text-anchor="middle" x="238.81" y="-15.49" font-family="Helvetica,sans-Serif" font-size="10.00" fill="#ffffff">excel2json</text>
</g>
<!-- excelform2json_utils -->
<g id="node2" class="node">
<title>excelform2json_utils</title><style>.edge>path:hover{stroke-width:8}</style>
<ellipse fill="#c24747" stroke="black" cx="60.81" cy="-159.97" rx="60.62" ry="21.43"/>
<text text-anchor="middle" x="60.81" y="-162.97" font-family="Helvetica,sans-Serif" font-size="10.00" fill="#ffffff">excelform2json.</text>
<text text-anchor="middle" x="60.81" y="-151.97" font-family="Helvetica,sans-Serif" font-size="10.00" fill="#ffffff">utils</text>
</g>
<!-- excelform2json_utils&#45;&gt;excelform2json_excel2json_excel2json -->
<g id="edge1" class="edge">
<title>excelform2json_utils&#45;&gt;excelform2json_excel2json_excel2json</title><style>.edge>path:hover{stroke-width:8}</style>
<path fill="none" stroke="black" d="M100.84,-143.86C112.13,-139.64 124.44,-135.09 135.81,-130.98 181.42,-114.5 246.11,-142.92 238.81,-94.98"/>
<path fill="none" stroke="black" d="M238.81,-93.98C237.55,-85.71 237.03,-76.76 236.93,-68.25"/>
<polygon fill="#c24747" stroke="black" points="240.43,-68.18 236.99,-58.16 233.43,-68.14 240.43,-68.18"/>
</g>
<!-- excelform2json_utils_check_schema -->
<g id="node3" class="node">
<title>excelform2json_utils_check_schema</title><style>.edge>path:hover{stroke-width:8}</style>
<ellipse fill="#b34c4c" stroke="black" cx="556.81" cy="-159.97" rx="60.62" ry="28.98"/>
<text text-anchor="middle" x="556.81" y="-168.47" font-family="Helvetica,sans-Serif" font-size="10.00" fill="#ffffff">excelform2json.</text>
<text text-anchor="middle" x="556.81" y="-157.47" font-family="Helvetica,sans-Serif" font-size="10.00" fill="#ffffff">utils.</text>
<text text-anchor="middle" x="556.81" y="-146.47" font-family="Helvetica,sans-Serif" font-size="10.00" fill="#ffffff">check_schema</text>
</g>
<!-- excelform2json_utils_excel -->
<g id="node4" class="node">
<title>excelform2json_utils_excel</title><style>.edge>path:hover{stroke-width:8}</style>
<ellipse fill="#b03a3a" stroke="black" cx="238.81" cy="-159.97" rx="60.62" ry="28.98"/>
<text text-anchor="middle" x="238.81" y="-168.47" font-family="Helvetica,sans-Serif" font-size="10.00" fill="#ffffff">excelform2json.</text>
<text text-anchor="middle" x="238.81" y="-157.47" font-family="Helvetica,sans-Serif" font-size="10.00" fill="#ffffff">utils.</text>
<text text-anchor="middle" x="238.81" y="-146.47" font-family="Helvetica,sans-Serif" font-size="10.00" fill="#ffffff">excel</text>
</g>
<!-- excelform2json_utils_excel&#45;&gt;excelform2json_excel2json_excel2json -->
<g id="edge2" class="edge">
<title>excelform2json_utils_excel&#45;&gt;excelform2json_excel2json_excel2json</title><style>.edge>path:hover{stroke-width:8}</style>
<path fill="none" stroke="black" d="M240.64,-130.8C240.89,-119.6 240.58,-106.62 238.81,-94.98"/>
</g>
<!-- excelform2json_utils_messages -->
<g id="node5" class="node">
<title>excelform2json_utils_messages</title><style>.edge>path:hover{stroke-width:8}</style>
<ellipse fill="#c24747" stroke="black" cx="378.81" cy="-159.97" rx="60.62" ry="28.98"/>
<text text-anchor="middle" x="378.81" y="-168.47" font-family="Helvetica,sans-Serif" font-size="10.00" fill="#ffffff">excelform2json.</text>
<text text-anchor="middle" x="378.81" y="-157.47" font-family="Helvetica,sans-Serif" font-size="10.00" fill="#ffffff">utils.</text>
<text text-anchor="middle" x="378.81" y="-146.47" font-family="Helvetica,sans-Serif" font-size="10.00" fill="#ffffff">messages</text>
</g>
<!-- excelform2json_utils_messages&#45;&gt;excelform2json_excel2json_excel2json -->
<g id="edge3" class="edge">
<title>excelform2json_utils_messages&#45;&gt;excelform2json_excel2json_excel2json</title><style>.edge>path:hover{stroke-width:8}</style>
<path fill="none" stroke="black" d="M333.7,-140.48C293.08,-123.5 239.61,-100.22 238.81,-94.98"/>
</g>
<!-- jsonschema -->
<g id="node6" class="node">
<title>jsonschema</title><style>.edge>path:hover{stroke-width:8}</style>
<ellipse fill="#80c040" stroke="black" cx="556.81" cy="-373.95" rx="40.74" ry="18"/>
<text text-anchor="middle" x="556.81" y="-371.45" font-family="Helvetica,sans-Serif" font-size="10.00" fill="#000000">jsonschema</text>
</g>
<!-- jsonschema&#45;&gt;excelform2json_utils_check_schema -->
<g id="edge4" class="edge">
<title>jsonschema&#45;&gt;excelform2json_utils_check_schema</title><style>.edge>path:hover{stroke-width:8}</style>
<path fill="none" stroke="black" d="M556.81,-355.6C556.81,-321.66 556.81,-245.75 556.81,-199.4"/>
<polygon fill="#80c040" stroke="black" points="560.31,-199.14 556.81,-189.14 553.31,-199.14 560.31,-199.14"/>
</g>
<!-- openpyxl -->
<g id="node7" class="node">
<title>openpyxl</title><style>.edge>path:hover{stroke-width:8}</style>
<ellipse fill="#26d9d9" stroke="black" cx="110.81" cy="-373.95" rx="32.93" ry="18"/>
<text text-anchor="middle" x="110.81" y="-371.45" font-family="Helvetica,sans-Serif" font-size="10.00" fill="#000000">openpyxl</text>
</g>
<!-- openpyxl&#45;&gt;excelform2json_excel2json_excel2json -->
<g id="edge5" class="edge">
<title>openpyxl&#45;&gt;excelform2json_excel2json_excel2json</title><style>.edge>path:hover{stroke-width:8}</style>
<path fill="none" stroke="black" d="M131.71,-360.01C169.6,-335.75 245.19,-283.34 238.81,-254.96"/>
<path fill="none" stroke="black" d="M238.81,-252.96C243.02,-211.02 185.81,-227.54 168.81,-188.97 158.42,-165.38 155.39,-152.98 168.81,-130.98 187.03,-101.12 244.07,-129.57 238.81,-94.98"/>
</g>
<!-- openpyxl&#45;&gt;excelform2json_utils_excel -->
<g id="edge6" class="edge">
<title>openpyxl&#45;&gt;excelform2json_utils_excel</title><style>.edge>path:hover{stroke-width:8}</style>
<path fill="none" stroke="black" d="M238.81,-252.96C234.93,-235.7 234.41,-216.16 235.07,-199.55"/>
<polygon fill="#26d9d9" stroke="black" points="238.59,-199.28 235.64,-189.1 231.6,-198.89 238.59,-199.28"/>
</g>
<!-- openpyxl_worksheet -->
<g id="node8" class="node">
<title>openpyxl_worksheet</title><style>.edge>path:hover{stroke-width:8}</style>
<ellipse fill="#53b6b6" stroke="black" cx="359.81" cy="-253.96" rx="43.68" ry="21.43"/>
<text text-anchor="middle" x="359.81" y="-256.96" font-family="Helvetica,sans-Serif" font-size="10.00" fill="#000000">openpyxl.</text>
<text text-anchor="middle" x="359.81" y="-245.96" font-family="Helvetica,sans-Serif" font-size="10.00" fill="#000000">worksheet</text>
</g>
<!-- openpyxl_worksheet&#45;&gt;excelform2json_excel2json_excel2json -->
<g id="edge7" class="edge">
<title>openpyxl_worksheet&#45;&gt;excelform2json_excel2json_excel2json</title><style>.edge>path:hover{stroke-width:8}</style>
<path fill="none" stroke="black" d="M387.54,-237.33C422.16,-216.8 475.93,-181 467.81,-160.97"/>
<path fill="none" stroke="black" d="M467.81,-158.97C462.16,-145.04 461.45,-139.12 448.81,-130.98 409,-105.35 245.93,-141.79 238.81,-94.98"/>
</g>
<!-- openpyxl_worksheet_cell_range -->
<g id="node9" class="node">
<title>openpyxl_worksheet_cell_range</title><style>.edge>path:hover{stroke-width:8}</style>
<ellipse fill="#4cb3b3" stroke="black" cx="467.81" cy="-253.96" rx="45.92" ry="28.98"/>
<text text-anchor="middle" x="467.81" y="-262.46" font-family="Helvetica,sans-Serif" font-size="10.00" fill="#000000">openpyxl.</text>
<text text-anchor="middle" x="467.81" y="-251.46" font-family="Helvetica,sans-Serif" font-size="10.00" fill="#000000">worksheet.</text>
<text text-anchor="middle" x="467.81" y="-240.46" font-family="Helvetica,sans-Serif" font-size="10.00" fill="#000000">cell_range</text>
</g>
<!-- openpyxl_worksheet_cell_range&#45;&gt;excelform2json_excel2json_excel2json -->
<g id="edge8" class="edge">
<title>openpyxl_worksheet_cell_range&#45;&gt;excelform2json_excel2json_excel2json</title><style>.edge>path:hover{stroke-width:8}</style>
<path fill="none" stroke="black" d="M473.14,-224.95C475.46,-206.17 476.04,-181.25 467.81,-160.97"/>
</g>
<!-- utils -->
<g id="node10" class="node">
<title>utils</title><style>.edge>path:hover{stroke-width:8}</style>
<ellipse fill="#8553b6" stroke="black" cx="188.81" cy="-373.95" rx="27" ry="18"/>
<text text-anchor="middle" x="188.81" y="-371.45" font-family="Helvetica,sans-Serif" font-size="10.00" fill="#ffffff">utils</text>
</g>
<!-- utils&#45;&gt;excelform2json_utils_excel -->
<g id="edge9" class="edge">
<title>utils&#45;&gt;excelform2json_utils_excel</title><style>.edge>path:hover{stroke-width:8}</style>
<path fill="none" stroke="black" d="M282.81,-318.95C298.02,-278.02 279.22,-229.44 261.69,-197.06"/>
<polygon fill="#8553b6" stroke="black" points="264.53,-194.96 256.58,-187.96 258.43,-198.4 264.53,-194.96"/>
<path fill="none" stroke="black" d="M210.25,-362.7C237.12,-349.59 280.01,-327.65 282.81,-319.95"/>
</g>
<!-- utils_messages -->
<g id="node11" class="node">
<title>utils_messages</title><style>.edge>path:hover{stroke-width:8}</style>
<ellipse fill="#8553b6" stroke="black" cx="282.81" cy="-373.95" rx="48.72" ry="18"/>
<text text-anchor="middle" x="282.81" y="-371.45" font-family="Helvetica,sans-Serif" font-size="10.00" fill="#ffffff">utils.messages</text>
</g>
<!-- utils_messages&#45;&gt;excelform2json_utils_excel -->
<g id="edge10" class="edge">
<title>utils_messages&#45;&gt;excelform2json_utils_excel</title><style>.edge>path:hover{stroke-width:8}</style>
<path fill="none" stroke="black" d="M279.83,-355.7C278.71,-345.07 278.58,-331.33 282.81,-319.95"/>
</g>
</g>
</svg>
